<svg width="1440" height="810" viewBox="0 0 1440 810" fill="none" xmlns="http://www.w3.org/2000/svg">
<mask id="mask0_49723_31963" style="mask-type:alpha" maskUnits="userSpaceOnUse" x="0" y="0" width="1440" height="810">
<path d="M0 0H1440V810H0V0Z" fill="#262626"/>
</mask>
<g mask="url(#mask0_49723_31963)">
<path d="M0 0H1440V810H0V0Z" fill="#292929"/>
<path opacity="0.4" fill-rule="evenodd" clip-rule="evenodd" d="M283.402 -79.0928C424.124 -109.858 570.163 -126 720 -126C965.93 -126 1201.8 -82.5111 1420 -2.55995C1405.38 88.7857 1384.68 178.042 1358.47 264.83C1160.4 188.107 945.23 145.948 720 145.948C590.293 145.948 463.815 160.001 341.894 186.588C252.257 205.959 165.469 232.356 81.5302 264.83C55.133 178.042 34.6229 88.7857 20 -2.55995C105.269 -33.7048 193.196 -59.3424 283.402 -79.0928ZM177.5 519.281C262.199 486.237 350.696 460.599 442.231 443.508C532.247 426.606 624.922 417.68 720.066 417.87C911.493 417.87 1094.37 453.953 1262.63 519.471C1224.27 603.03 1180.59 683.741 1131.98 760.844C1003.22 714.696 864.586 689.628 720.066 689.628C676.957 689.628 634.228 691.907 592.069 696.275C684.364 826.172 793.75 943.155 917.001 1043.62C855.66 1111.03 789.952 1174.46 720.066 1233.33C490.278 1039.63 303.789 795.977 177.5 519.281Z" fill="#424242"/>
</g>
</svg>
